# xmcd
# 
# Track frame offsets:
#     150
#     17420
#     36845
#     47495
#     63495
#     75770
#     87890
#     99495
#     130132
#     153382
#     170195
#     185070
#     198662
#     211807
#     222385
#     232320
#     251307
# 
# Disc length: 3515
# 
# Revision: 3
# Processed by: cddbd v1.5.2PL0 Copyright (c) Steve Scherf et al.
# Submitted via: BonkEnc v1.0.6
# 
DISCID=e60db911
DTITLE=SHEENA and THE ROKKETS - BEST SELECTION
DYEAR=1986
DGENRE=Pop
TTITLE0=YOU MAY DREAM
TTITLE1=LAZY CRAZY BLUES
TTITLE2=YOU REALLY GOT ME
TTITLE3=OLD FASHIONED LOVE SONG
TTITLE4=UKABI NO PEACH GIRL
TTITLE5=HOT LINE
TTITLE6=MY BOY FRIEND
TTITLE7=SATISFACTION
TTITLE8=PINUP BABY BLUES
TTITLE9=BABY MAYBE
TTITLE10=KISS-ME-QUICK
TTITLE11=ONE NIGHT STAND
TTITLE12=RADIO JUNK
TTITLE13=KRAZY KOOL KAT
TTITLE14=STIFF LIPS
TTITLE15=OH! SUZY-Q
TTITLE16=HEART NI HI O TSUKETE
EXTD=
EXTT0=
EXTT1=
EXTT2=
EXTT3=
EXTT4=
EXTT5=
EXTT6=
EXTT7=
EXTT8=
EXTT9=
EXTT10=
EXTT11=
EXTT12=
EXTT13=
EXTT14=
EXTT15=
EXTT16=
PLAYORDER=
